<?xml version="1.0" encoding="utf-8"?>
<!-- Generator: Adobe Illustrator 18.1.1, SVG Export Plug-In . SVG Version: 6.00 Build 0)  -->
<!DOCTYPE svg PUBLIC "-//W3C//DTD SVG 1.1//EN" "http://www.w3.org/Graphics/SVG/1.1/DTD/svg11.dtd">
<svg version="1.1" id="Layer_1" xmlns="http://www.w3.org/2000/svg" xmlns:xlink="http://www.w3.org/1999/xlink" x="0px" y="0px"
	 viewBox="-250 542 500 500" enable-background="new -250 542 500 500" xml:space="preserve">
<path display="none" fill="#FFFFFF" d="M257,500.5l-0.6-3.9c-0.8-7.4-1-14.8-0.6-22c0.4-7.6,2.1-14.7,5.1-21.2
	c3-6.8,6.5-12.6,10.6-17.5c4.5-5.3,10.1-9.4,16.9-12.2c7-3.2,14.7-4.7,23.1-4.7c14,0,25.6,4,34.9,12c9.4,8.2,15.5,18,18.6,29.4
	c3,11.5,3.6,23.7,1.8,36.3l-0.6,3.9c-0.1,1.3-0.9,4.6-2.2,9.8c-0.9,4.5-2.3,9.2-4.1,14.1c-1.7,4.6-4.1,9.5-6.9,14.7
	c-2.4,4.8-5.6,9.5-9.6,14.1c-3.4,3.6-8,6.8-13.7,9.8c-5.3,2.5-11.1,3.9-17.5,3.9c-6.2,0-12.1-1.3-17.7-3.9
	c-5.7-2.9-10.3-6.2-13.7-10.2c-3.4-3.8-6.7-8.3-10-13.5c-3-4.9-5.3-9.9-6.9-14.9c-1.9-5.3-3.4-9.9-4.3-13.7
	C258.2,506.2,257.4,502.8,257,500.5z M444.4,627.6c6.8,11.5,10.2,26.1,10.2,43.6v50.7c0,0.5-1.9,1.4-5.9,2.7c-0.9,0.3-3.5,1-7.5,2.1
	c-4.1,1.1-8.2,2.2-12.2,3.4c-14.9,3.3-26.1,5.6-33.7,6.9c-11.5,2-24.8,3.9-39.8,5.5c-15.2,1.6-29.7,2.4-43.4,2.4
	c-13.7,0-28.3-0.8-43.6-2.4c-12.2-1.1-25.7-3-40.4-5.5c-6-1.1-16.5-3.4-31.8-6.9c-5.8-1.3-13.1-3.4-21.6-5.9l-5.5-2.2v-50.7
	c0-18.2,3.2-32.8,9.4-43.8c8.9-15.6,19-27,30.6-34.3c6.4-4,15.6-6.8,27.7-8.6c12.1-1.7,23.5-2.7,34.3-2.7l34.1,34.1l-13.7,27.1v61.1
	l20.8,22l20-22v-61.1L318.5,616l33.7-34.1c28.4,0,48,3.6,59.1,10.6C424.3,600.9,435.3,612.6,444.4,627.6z"/>
<rect x="-250" y="542" fill="#E41B13" width="500" height="500"/>
<path fill="#FFFFFF" d="M149.8,792c0-27.1-6.7-52.2-20.1-75.2c-13.4-23-31.6-41.2-54.6-54.6c-23-13.3-48-20-75.1-20
	c-20.4,0-39.8,4-58.3,11.9S-92.7,672.7-106,686s-24,29.2-31.9,47.7c-7.9,18.5-11.9,37.9-11.9,58.3c0,20.4,4,39.8,11.9,58.3
	s18.5,34.4,31.9,47.7c13.3,13.3,29.2,24,47.7,31.9c18.5,7.9,37.9,11.9,58.3,11.9c27.1,0,52.1-6.7,75.1-20
	c23-13.3,41.1-31.5,54.6-54.6C143,844.2,149.8,819.1,149.8,792z M15,823.7h-33.4v-9.2c0-8,1.7-15,5.1-21c3.1-5.6,9.4-11.9,18.8-19
	c8.7-6.1,14.5-11.2,17.3-15.2c2.9-3.7,4.3-8.1,4.3-13.3c0-5.3-2-9.4-6-12.4c-4-2.7-9.6-4.1-16.9-4.1c-12.6,0-26.8,4.1-42.8,12.2
	l-13.7-27.4c18.7-10.6,38.4-15.8,59.3-15.8c17.1,0,30.8,4.1,41.1,12.4c10.1,8.3,15.2,19.3,15.2,33.2c0,9.4-2.1,17.3-6.2,23.7
	c-3.9,6.4-11.8,14-23.7,22.7c-7.8,5.7-12.9,10.2-15.2,13.5c-2.1,3.1-3.2,7.2-3.2,12.2C15,816.2,15,823.7,15,823.7z M-16.5,882.3
	c-3.9-3.7-5.8-8.9-5.8-15.6c0-7.1,1.9-12.5,5.6-16c3.7-3.6,9.2-5.3,16.5-5.3c6.7,0,12.1,1.9,16,5.6c3.9,3.7,5.8,9,5.8,15.8
	c0,6.7-1.9,11.8-5.8,15.4c-3.9,3.9-9.2,5.8-16,5.8S-12.5,886-16.5,882.3z"/>
</svg>
